<?xml version="1.0" encoding="UTF-8"?>
<svg xmlns="http://www.w3.org/2000/svg" id="Layer_1" data-name="Layer 1" viewBox="0 0 24 24">
  <path d="m23.731,23.024l-6.321-6.321c1.607-1.775,2.596-4.12,2.596-6.698C20.006,4.492,15.52.006,10.006.006S.006,4.492.006,10.006s4.486,10,10,10c2.577,0,4.922-.988,6.697-2.595l6.321,6.321c.098.098.226.146.354.146s.256-.049.354-.146c.195-.195.195-.512,0-.707ZM1.006,10.006C1.006,5.043,5.043,1.006,10.006,1.006s9,4.038,9,9-4.037,9-9,9S1.006,14.968,1.006,10.006Zm9.994,4.994c0,.552-.448,1-1,1s-1-.448-1-1,.448-1,1-1,1,.448,1,1Zm2-7c0,1.125-.621,2.146-1.621,2.665-.534.277-.879.913-.879,1.621v.214c0,.276-.224.5-.5.5s-.5-.224-.5-.5v-.214c0-1.094.544-2.055,1.418-2.509.668-.346,1.082-1.027,1.082-1.777,0-1.103-.897-2-2-2s-2,.897-2,2c0,.276-.224.5-.5.5s-.5-.224-.5-.5c0-1.654,1.346-3,3-3s3,1.346,3,3Z"/>
</svg>
